<svg width="96" height="97" viewBox="0 0 96 97" fill="none" xmlns="http://www.w3.org/2000/svg">
<g filter="url(#filter0_d_9_103)">
<circle cx="46.5" cy="48.5" r="30.5" fill="#FFFCFC"/>
</g>
<path d="M60.7168 45.8359H59.55V45.7807H46.5V51.171H54.6959C53.4979 54.3083 50.2864 56.5613 46.5 56.5613C41.694 56.5613 37.8 52.9423 37.8 48.4758C37.8 44.0093 41.694 40.3903 46.5 40.3903C48.7175 40.3903 50.7367 41.1668 52.2717 42.438L56.3725 38.6269C53.784 36.3844 50.3204 35 46.5 35C38.491 35 32 41.0325 32 48.4758C32 55.9191 38.491 61.9517 46.5 61.9517C54.509 61.9517 61 55.9191 61 48.4758C61 47.5731 60.9009 46.6913 60.7168 45.8359Z" fill="#FFC107"/>
<path d="M33.6709 42.2038L38.4372 45.4517C39.7258 42.4854 42.8467 40.3903 46.5 40.3903C48.7175 40.3903 50.7367 41.1668 52.2717 42.438L56.3725 38.6269C53.784 36.3844 50.3204 35 46.5 35C40.9294 35 36.1008 37.9215 33.6709 42.2038Z" fill="#FF3D00"/>
<path d="M46.4999 61.9516C50.2439 61.9516 53.648 60.6198 56.2223 58.4537L51.7335 54.9241C50.2779 55.948 48.4682 56.5612 46.4999 56.5612C42.7277 56.5612 39.5275 54.3267 38.321 51.2078L33.5916 54.5925C35.9903 58.9564 40.8642 61.9516 46.4999 61.9516Z" fill="#4CAF50"/>
<path d="M60.7168 45.8359H59.55V45.7806H46.5V51.171H54.6959C54.121 52.6791 53.076 53.9767 51.7308 54.9242C51.7336 54.9242 51.7336 54.9242 51.7336 54.9242L56.2224 58.4537C55.9052 58.7195 61 55.2137 61 48.4758C61 47.573 60.9009 46.6913 60.7168 45.8359Z" fill="#1976D2"/>
<defs>
<filter id="filter0_d_9_103" x="0.535212" y="0.816902" width="95.3662" height="95.3662" filterUnits="userSpaceOnUse" color-interpolation-filters="sRGB">
<feFlood flood-opacity="0" result="BackgroundImageFix"/>
<feColorMatrix in="SourceAlpha" type="matrix" values="0 0 0 0 0 0 0 0 0 0 0 0 0 0 0 0 0 0 127 0" result="hardAlpha"/>
<feOffset dx="1.71831"/>
<feGaussianBlur stdDeviation="8.59155"/>
<feComposite in2="hardAlpha" operator="out"/>
<feColorMatrix type="matrix" values="0 0 0 0 0 0 0 0 0 0 0 0 0 0 0 0 0 0 0.25 0"/>
<feBlend mode="normal" in2="BackgroundImageFix" result="effect1_dropShadow_9_103"/>
<feBlend mode="normal" in="SourceGraphic" in2="effect1_dropShadow_9_103" result="shape"/>
</filter>
</defs>
</svg>
