<svg width="454" height="525" viewBox="0 0 454 525" fill="none" xmlns="http://www.w3.org/2000/svg">
<path d="M46.9224 78.7974C74.7163 3.26714 141.431 -25.1715 194.069 25.5414C214.624 45.326 227.449 76.8136 252.617 89.4486C276.233 101.298 306.15 97.8098 331.687 104.227C386.068 117.807 459.284 169.333 453.699 248.724C451.252 283.5 431.568 322.124 421.838 354.663C410.667 392.102 403.964 438.941 374.394 461.322C323.7 499.746 262.549 468.338 216.881 437.356C192.304 420.701 178.776 410.462 152.311 416.174C127.813 421.499 105.75 440.139 81.81 418.025C63.8356 401.422 62.3498 367.778 47.2575 348.02C30.255 325.759 13.0178 324.148 4.18143 290.69C-6.53174 250.095 9.25317 224.732 19.9217 188.465C30.5901 152.197 33.8297 114.332 46.9224 78.7974Z" fill="#D150E7"/>
<g opacity="0.7">
<path d="M46.9224 78.7974C74.7163 3.26714 141.431 -25.1715 194.069 25.5414C214.624 45.326 227.449 76.8136 252.617 89.4486C276.233 101.298 306.15 97.8098 331.687 104.227C386.068 117.807 459.284 169.333 453.699 248.724C451.252 283.5 431.568 322.124 421.838 354.663C410.667 392.102 403.964 438.941 374.394 461.322C323.7 499.746 262.549 468.338 216.881 437.356C192.304 420.701 178.776 410.462 152.311 416.174C127.813 421.499 105.75 440.139 81.81 418.025C63.8356 401.422 62.3498 367.778 47.2575 348.02C30.255 325.759 13.0178 324.148 4.18143 290.69C-6.53174 250.095 9.25317 224.732 19.9217 188.465C30.5901 152.197 33.8297 114.332 46.9224 78.7974Z" fill="white"/>
</g>
<path d="M258.416 524.39C163.045 524.39 85.7314 518.65 85.7314 511.569C85.7314 504.488 163.045 498.747 258.416 498.747C353.786 498.747 431.1 504.488 431.1 511.569C431.1 518.65 353.786 524.39 258.416 524.39Z" fill="#D150E7"/>
<path opacity="0.8" d="M258.416 524.39C163.045 524.39 85.7314 518.65 85.7314 511.569C85.7314 504.488 163.045 498.747 258.416 498.747C353.786 498.747 431.1 504.488 431.1 511.569C431.1 518.65 353.786 524.39 258.416 524.39Z" fill="white"/>
<path d="M128.651 24.0236H302.285C314.272 24.0236 323.99 35.6055 323.99 49.8926V486.778C323.99 501.065 314.272 512.647 302.285 512.647H128.651C116.663 512.647 106.945 501.065 106.945 486.778V49.8926C106.945 35.6055 116.663 24.0236 128.651 24.0236Z" fill="#263238"/>
<path d="M116.597 77.679H314.35V458.992H116.597V77.679Z" fill="white" stroke="#263238" stroke-width="1.91052" stroke-miterlimit="10"/>
<path d="M185.158 232.084C168.419 212.133 168.419 179.788 185.158 159.837C201.897 139.887 229.037 139.887 245.777 159.837C262.516 179.788 262.516 212.133 245.777 232.084C229.037 252.034 201.897 252.034 185.158 232.084Z" fill="#D150E7"/>
<path d="M159.193 435.013H271.731C271.985 435.015 272.236 434.957 272.47 434.843C272.705 434.728 272.918 434.56 273.097 434.347C273.277 434.134 273.419 433.881 273.517 433.603C273.614 433.324 273.664 433.025 273.664 432.723C273.666 432.42 273.617 432.12 273.52 431.84C273.423 431.559 273.281 431.305 273.101 431.09C272.922 430.876 272.708 430.707 272.473 430.591C272.238 430.476 271.986 430.418 271.731 430.42H159.193C158.94 430.42 158.689 430.479 158.455 430.595C158.221 430.711 158.009 430.881 157.83 431.095C157.652 431.309 157.51 431.563 157.415 431.843C157.319 432.122 157.27 432.421 157.271 432.723C157.271 433.33 157.474 433.913 157.834 434.342C158.195 434.772 158.683 435.013 159.193 435.013Z" fill="#D150E7"/>
<path d="M155.527 275.765H275.405C277.879 275.765 279.885 278.155 279.885 281.103V297.946C279.885 300.894 277.879 303.285 275.405 303.285H155.527C153.053 303.285 151.048 300.894 151.048 297.946V281.103C151.048 278.155 153.053 275.765 155.527 275.765Z" fill="#D150E7"/>
<path d="M155.527 327.236H275.405C277.879 327.236 279.885 329.627 279.885 332.575V349.418C279.885 352.366 277.879 354.756 275.405 354.756H155.527C153.053 354.756 151.048 352.366 151.048 349.418V332.575C151.048 329.627 153.053 327.236 155.527 327.236Z" fill="#D150E7"/>
<path d="M194.125 221.443L206.737 212.789V205.64C204.911 203.007 203.588 199.931 202.861 196.626C202.427 196.81 201.97 196.904 201.509 196.906C199.945 196.906 198.951 191.127 198.783 187C196.962 182.407 199.442 179.717 199.442 179.717C199.442 179.717 198.415 178.493 197.733 173.58C197.052 168.667 200.135 170.717 202.537 166.217C204.939 161.717 206.659 156.817 214.546 156.817C216.719 156.732 218.863 157.428 220.7 158.815C222.537 160.201 223.981 162.215 224.846 164.593C226.809 164.601 228.765 164.874 230.677 165.405C233.09 166.217 233.771 175.63 231.716 179.318C230.796 181.333 230.305 183.587 230.286 185.882C230.833 185.083 231.403 184.87 231.716 186.681C232.397 190.768 229.649 196.493 229.649 196.493L228.23 196.014C227.516 199.545 226.137 202.837 224.198 205.64V212.789L236.81 221.443C238.283 222.457 239.506 223.914 240.357 225.669C241.208 227.424 241.657 229.415 241.658 231.442V236.395C234.157 243.301 224.946 247.048 215.467 247.048C205.989 247.048 196.778 243.301 189.277 236.395V231.442C189.276 229.415 189.723 227.423 190.575 225.667C191.426 223.912 192.65 222.455 194.125 221.443Z" fill="#263238"/>
<path d="M263.565 347.913C263.854 347.908 264.13 347.77 264.336 347.527C264.445 347.41 264.533 347.266 264.593 347.105C264.653 346.945 264.683 346.771 264.682 346.595C264.678 346.355 264.621 346.12 264.514 345.916L262.504 342.082L266.425 342.228C266.572 342.239 266.72 342.213 266.859 342.151C266.998 342.089 267.124 341.993 267.229 341.868C267.411 341.625 267.512 341.31 267.512 340.983C267.512 340.657 267.411 340.342 267.229 340.098C267.126 339.969 267.001 339.869 266.862 339.805C266.723 339.74 266.573 339.713 266.425 339.725L262.559 339.898L264.548 336.077C264.656 335.869 264.714 335.629 264.715 335.385C264.716 335.209 264.686 335.035 264.626 334.874C264.567 334.713 264.479 334.57 264.369 334.453C264.164 334.21 263.887 334.071 263.598 334.067C263.408 334.068 263.222 334.134 263.062 334.256C262.901 334.379 262.774 334.553 262.693 334.759L260.783 338.873L258.895 334.785C258.806 334.567 258.668 334.383 258.496 334.251C258.325 334.12 258.127 334.047 257.923 334.04C257.782 334.041 257.643 334.077 257.514 334.146C257.385 334.214 257.269 334.314 257.175 334.439C256.97 334.693 256.857 335.033 256.862 335.385C256.863 335.613 256.913 335.838 257.007 336.037L259.029 339.898L255.108 339.725C254.959 339.713 254.81 339.74 254.671 339.805C254.532 339.869 254.407 339.969 254.304 340.098C254.113 340.333 254.009 340.649 254.013 340.976C254.014 341.306 254.118 341.624 254.304 341.868C254.409 341.993 254.535 342.089 254.674 342.151C254.812 342.213 254.96 342.239 255.108 342.228L259.052 342.082L257.085 345.876C256.975 346.088 256.917 346.332 256.918 346.582C256.918 346.935 257.036 347.273 257.245 347.523C257.455 347.773 257.739 347.913 258.035 347.913C258.227 347.91 258.413 347.84 258.572 347.713C258.731 347.585 258.855 347.405 258.929 347.194L260.794 343.2L262.649 347.194C262.731 347.403 262.86 347.581 263.022 347.707C263.183 347.834 263.371 347.905 263.565 347.913Z" fill="#263238"/>
<path d="M245.445 347.913C245.734 347.908 246.01 347.77 246.216 347.527C246.326 347.41 246.413 347.266 246.473 347.105C246.533 346.945 246.563 346.771 246.562 346.595C246.559 346.355 246.501 346.12 246.394 345.916L244.384 342.082L248.293 342.228C248.443 342.236 248.592 342.208 248.732 342.147C248.872 342.085 249 341.99 249.109 341.868C249.257 341.686 249.356 341.455 249.393 341.205C249.429 340.955 249.401 340.697 249.313 340.466C249.225 340.235 249.081 340.04 248.899 339.908C248.717 339.776 248.506 339.712 248.293 339.725L244.439 339.898L246.428 336.077C246.536 335.869 246.594 335.629 246.595 335.385C246.597 335.209 246.566 335.035 246.506 334.874C246.447 334.713 246.359 334.57 246.249 334.453C246.044 334.21 245.768 334.071 245.478 334.067C245.288 334.068 245.102 334.134 244.942 334.256C244.782 334.379 244.654 334.553 244.573 334.759L242.663 338.873L240.775 334.785C240.686 334.567 240.548 334.383 240.377 334.251C240.205 334.12 240.007 334.047 239.803 334.04C239.662 334.039 239.522 334.074 239.393 334.143C239.264 334.212 239.149 334.313 239.055 334.439C238.951 334.564 238.869 334.711 238.814 334.873C238.758 335.036 238.73 335.209 238.731 335.385C238.735 335.615 238.789 335.839 238.887 336.037L240.909 339.898L236.977 339.752C236.83 339.74 236.682 339.767 236.545 339.832C236.408 339.896 236.285 339.996 236.184 340.124C235.993 340.36 235.889 340.676 235.893 341.003C235.894 341.333 235.998 341.651 236.184 341.895C236.287 342.019 236.411 342.115 236.548 342.177C236.685 342.239 236.831 342.265 236.977 342.255L240.932 342.108L238.966 345.903C238.855 346.115 238.797 346.359 238.798 346.608C238.798 346.961 238.916 347.3 239.125 347.55C239.335 347.799 239.619 347.94 239.915 347.94C240.107 347.937 240.293 347.867 240.452 347.739C240.611 347.612 240.735 347.431 240.809 347.221L242.674 343.227L244.529 347.221C244.614 347.425 244.745 347.597 244.906 347.719C245.067 347.841 245.254 347.908 245.445 347.913Z" fill="#263238"/>
<path d="M227.314 347.913C227.607 347.912 227.888 347.773 228.096 347.527C228.206 347.41 228.294 347.266 228.353 347.105C228.413 346.945 228.443 346.771 228.442 346.595C228.439 346.355 228.381 346.12 228.275 345.916L226.264 342.082L230.174 342.228C230.384 342.238 230.593 342.173 230.772 342.042C230.952 341.91 231.094 341.718 231.182 341.489C231.269 341.261 231.297 341.006 231.263 340.759C231.229 340.511 231.134 340.281 230.989 340.098C230.884 339.97 230.756 339.87 230.616 339.805C230.475 339.741 230.324 339.714 230.174 339.725L226.32 339.898L228.308 336.077C228.416 335.869 228.474 335.629 228.476 335.385C228.472 335.21 228.44 335.037 228.38 334.878C228.321 334.718 228.236 334.573 228.129 334.453C227.921 334.207 227.641 334.068 227.347 334.067C227.159 334.07 226.975 334.138 226.817 334.26C226.659 334.382 226.533 334.555 226.454 334.759L224.543 338.873L222.656 334.785C222.566 334.567 222.428 334.383 222.257 334.251C222.086 334.12 221.887 334.047 221.684 334.04C221.542 334.039 221.402 334.074 221.273 334.143C221.144 334.212 221.029 334.313 220.935 334.439C220.832 334.564 220.75 334.711 220.694 334.873C220.639 335.036 220.61 335.209 220.611 335.385C220.615 335.615 220.669 335.839 220.768 336.037L222.79 339.898L218.857 339.725C218.713 339.708 218.567 339.728 218.429 339.783C218.292 339.839 218.166 339.929 218.06 340.048C217.954 340.166 217.871 340.311 217.816 340.471C217.76 340.631 217.735 340.803 217.74 340.976C217.738 341.305 217.837 341.622 218.02 341.868C218.125 341.993 218.251 342.089 218.389 342.151C218.528 342.213 218.676 342.239 218.824 342.228L222.767 342.082L220.812 345.876C220.702 346.088 220.644 346.332 220.645 346.582C220.648 346.757 220.681 346.929 220.74 347.089C220.8 347.249 220.885 347.393 220.991 347.514C221.088 347.638 221.206 347.738 221.336 347.807C221.467 347.875 221.608 347.912 221.751 347.913C221.941 347.909 222.125 347.839 222.282 347.711C222.439 347.583 222.561 347.404 222.633 347.194L224.51 343.2L226.364 347.194C226.448 347.41 226.582 347.593 226.75 347.72C226.919 347.848 227.114 347.915 227.314 347.913Z" fill="#263238"/>
<path d="M209.194 347.913C209.487 347.912 209.768 347.773 209.976 347.527C210.187 347.281 210.307 346.946 210.311 346.595C210.315 346.355 210.261 346.12 210.155 345.916L208.144 342.082L212.054 342.228C212.203 342.236 212.352 342.208 212.492 342.147C212.632 342.085 212.761 341.99 212.87 341.868C213.052 341.625 213.152 341.31 213.152 340.983C213.152 340.657 213.052 340.342 212.87 340.098C212.762 339.974 212.634 339.876 212.494 339.812C212.354 339.748 212.204 339.719 212.054 339.725L208.189 339.898L210.166 336.077C210.274 335.869 210.332 335.629 210.334 335.385C210.33 335.21 210.298 335.037 210.238 334.878C210.179 334.718 210.094 334.573 209.987 334.453C209.779 334.207 209.498 334.068 209.205 334.067C209.015 334.068 208.829 334.134 208.669 334.256C208.509 334.379 208.381 334.553 208.301 334.759L206.401 338.873L204.513 334.785C204.424 334.567 204.286 334.383 204.115 334.251C203.943 334.12 203.745 334.047 203.542 334.04C203.4 334.039 203.26 334.074 203.131 334.143C203.002 334.212 202.887 334.313 202.793 334.439C202.69 334.564 202.608 334.711 202.552 334.873C202.497 335.036 202.468 335.209 202.469 335.385C202.473 335.615 202.527 335.839 202.626 336.037L204.648 339.898L200.715 339.725C200.571 339.708 200.425 339.728 200.287 339.783C200.15 339.839 200.024 339.929 199.918 340.048C199.812 340.166 199.729 340.311 199.673 340.471C199.618 340.631 199.593 340.803 199.598 340.976C199.596 341.305 199.695 341.622 199.877 341.868C199.983 341.993 200.109 342.089 200.247 342.151C200.386 342.213 200.534 342.239 200.682 342.228L204.625 342.082L202.67 345.876C202.56 346.088 202.502 346.332 202.503 346.582C202.502 346.757 202.532 346.931 202.592 347.092C202.651 347.253 202.739 347.396 202.849 347.514C202.946 347.638 203.064 347.738 203.194 347.807C203.325 347.875 203.466 347.912 203.609 347.913C203.799 347.909 203.983 347.839 204.14 347.711C204.297 347.583 204.419 347.404 204.491 347.194L206.368 343.2L208.222 347.194C208.308 347.414 208.445 347.6 208.618 347.727C208.791 347.855 208.991 347.92 209.194 347.913Z" fill="#263238"/>
<path d="M191.075 347.913C191.368 347.912 191.649 347.773 191.857 347.527C192.03 347.318 192.14 347.047 192.171 346.755C192.201 346.464 192.15 346.169 192.025 345.916L190.025 342.082L193.935 342.228C194.084 342.236 194.233 342.208 194.373 342.147C194.513 342.085 194.642 341.99 194.75 341.869C194.933 341.625 195.033 341.31 195.033 340.983C195.033 340.657 194.933 340.342 194.75 340.098C194.642 339.974 194.515 339.876 194.374 339.812C194.234 339.748 194.085 339.719 193.935 339.725L190.07 339.898L192.058 336.077C192.166 335.869 192.224 335.629 192.226 335.385C192.222 335.033 192.101 334.698 191.891 334.453C191.683 334.207 191.402 334.068 191.109 334.067C190.918 334.068 190.732 334.134 190.572 334.256C190.412 334.379 190.284 334.553 190.204 334.759L188.305 338.873L186.417 334.785C186.327 334.567 186.189 334.383 186.018 334.251C185.847 334.12 185.648 334.047 185.445 334.04C185.302 334.039 185.16 334.074 185.029 334.143C184.898 334.212 184.781 334.313 184.685 334.439C184.48 334.693 184.368 335.033 184.372 335.385C184.376 335.615 184.43 335.839 184.529 336.037L186.551 339.898L182.618 339.725C182.474 339.708 182.328 339.728 182.19 339.783C182.053 339.839 181.927 339.929 181.821 340.048C181.715 340.166 181.632 340.311 181.577 340.471C181.522 340.631 181.496 340.803 181.501 340.976C181.499 341.305 181.598 341.622 181.781 341.869C181.886 341.993 182.012 342.089 182.151 342.151C182.289 342.213 182.437 342.239 182.585 342.228L186.528 342.082L184.573 345.876C184.463 346.088 184.405 346.332 184.406 346.582C184.405 346.757 184.435 346.931 184.495 347.092C184.555 347.253 184.642 347.396 184.752 347.514C184.849 347.638 184.967 347.738 185.097 347.807C185.228 347.875 185.369 347.912 185.512 347.913C185.702 347.909 185.887 347.839 186.043 347.711C186.2 347.583 186.322 347.404 186.394 347.194L188.271 343.2L190.126 347.194C190.209 347.41 190.343 347.593 190.512 347.72C190.68 347.848 190.876 347.915 191.075 347.913Z" fill="#263238"/>
<path d="M172.957 347.913C173.246 347.908 173.522 347.77 173.727 347.527C173.837 347.41 173.925 347.266 173.985 347.105C174.044 346.945 174.075 346.771 174.074 346.595C174.07 346.355 174.012 346.12 173.906 345.916L171.906 342.082L175.816 342.228C175.96 342.241 176.105 342.218 176.241 342.161C176.377 342.104 176.501 342.013 176.606 341.895C176.711 341.778 176.795 341.635 176.851 341.477C176.907 341.319 176.935 341.148 176.933 340.976C176.934 340.814 176.908 340.652 176.856 340.501C176.804 340.35 176.728 340.213 176.632 340.098C176.529 339.969 176.404 339.869 176.265 339.805C176.126 339.74 175.976 339.713 175.828 339.725L171.962 339.898L173.951 336.077C174.059 335.869 174.117 335.629 174.118 335.385C174.114 335.033 173.994 334.698 173.783 334.453C173.575 334.207 173.294 334.068 173.001 334.067C172.811 334.068 172.625 334.134 172.465 334.256C172.304 334.379 172.177 334.553 172.096 334.759L170.197 338.873L168.298 334.785C168.209 334.569 168.073 334.386 167.904 334.255C167.735 334.123 167.539 334.049 167.337 334.04C167.194 334.039 167.053 334.074 166.922 334.143C166.791 334.212 166.674 334.313 166.578 334.439C166.373 334.693 166.26 335.033 166.265 335.385C166.266 335.613 166.316 335.838 166.41 336.037L168.432 339.898L164.511 339.725C164.362 339.713 164.213 339.74 164.074 339.805C163.935 339.869 163.81 339.969 163.707 340.098C163.516 340.333 163.412 340.649 163.416 340.976C163.417 341.306 163.521 341.624 163.707 341.869C163.812 341.993 163.938 342.089 164.077 342.151C164.215 342.213 164.363 342.239 164.511 342.228L168.455 342.082L166.5 345.876C166.389 346.088 166.331 346.332 166.332 346.582C166.336 346.933 166.457 347.268 166.667 347.514C166.871 347.761 167.147 347.905 167.438 347.913C167.628 347.909 167.813 347.839 167.97 347.711C168.127 347.583 168.248 347.404 168.321 347.194L170.197 343.2L172.052 347.194C172.132 347.402 172.259 347.579 172.419 347.706C172.579 347.833 172.765 347.905 172.957 347.913Z" fill="#263238"/>
<g style="mix-blend-mode:multiply">
<path d="M116.597 78.1849H314.35V92.9501H116.597V78.1849Z" fill="#D150E7"/>
</g>
<path d="M193.968 50.9844H236.977C237.754 50.9844 238.498 50.6169 239.047 49.9627C239.596 49.3085 239.904 48.4213 239.904 47.4961C239.904 46.571 239.596 45.6837 239.047 45.0296C238.498 44.3754 237.754 44.0079 236.977 44.0079H193.968C193.192 44.0079 192.448 44.3754 191.899 45.0296C191.35 45.6837 191.042 46.571 191.042 47.4961C191.042 48.4213 191.35 49.3085 191.899 49.9627C192.448 50.6169 193.192 50.9844 193.968 50.9844Z" fill="#D150E7" stroke="#263238" stroke-width="1.91052" stroke-linecap="round" stroke-linejoin="round"/>
<path d="M203.744 480.534C203.741 477.768 204.428 475.063 205.716 472.762C207.004 470.461 208.836 468.667 210.979 467.607C213.123 466.548 215.483 466.27 217.759 466.809C220.035 467.348 222.126 468.679 223.768 470.635C225.409 472.591 226.526 475.083 226.978 477.796C227.431 480.509 227.197 483.321 226.308 485.876C225.419 488.431 223.914 490.614 221.983 492.15C220.052 493.685 217.783 494.503 215.462 494.5C212.355 494.497 209.376 493.024 207.179 490.405C204.982 487.787 203.747 484.237 203.744 480.534Z" fill="#D150E7"/>
<path d="M209.518 473.451H221.404V487.617H209.518V473.451Z" fill="#D150E7" stroke="#263238" stroke-width="1.91052" stroke-linecap="round" stroke-linejoin="round"/>
<path d="M73.878 319.781C73.878 319.781 89.4507 272.622 75.5872 267.017C61.154 261.172 61.7908 292.314 62.3494 307.492C63.5223 339.925 66.5274 345.956 68.7728 338.034L73.878 319.781ZM78.5588 356.567C74.2802 363.224 73.0737 356.327 80.793 325.186C84.4125 310.541 92.277 280.917 104.342 292.034C115.926 302.685 88.3559 341.296 88.3559 341.296L78.5588 356.567ZM86.8254 383.595C82.7479 387.908 82.6698 382.463 92.3552 359.976C96.9018 349.444 106.52 328.128 114.396 338.673C121.959 348.845 96.1869 373.569 96.1869 373.569L86.8254 383.595ZM95.7624 415.735C91.6849 420.062 91.6067 414.603 101.292 392.129C105.839 381.597 115.457 360.268 123.333 370.826C130.851 381.025 105.157 405.749 105.157 405.749L95.7624 415.735ZM69.9569 350.31C76.4809 353.345 71.2975 356.647 44.051 356.554C31.2711 356.554 5.17527 355.862 10.7385 338.939C16.0672 322.683 54.8758 343.386 54.8758 343.386L69.9569 350.31ZM77.3858 371.932C84.2896 373.356 79.7541 377.83 53.0326 384.194C40.5097 387.189 14.8271 392.715 17.4524 374.874C19.9659 357.672 61.4557 368.776 61.4557 368.776L77.3858 371.932ZM85.6971 398.333C91.5732 399.345 87.8197 403.246 65.3544 409.37C54.82 412.246 33.2037 417.638 35.0805 402.421C36.8679 387.775 72.1688 396.056 72.1688 396.056L85.6971 398.333ZM92.0089 422.791C97.762 424.535 93.6845 427.943 70.7836 431.192C60.0593 432.71 38.0855 435.346 41.2917 420.448C44.3861 406.148 78.7486 418.81 78.7486 418.81L92.0089 422.791ZM58.3389 323.775C61.6903 332.722 54.7306 331.364 31.07 306.76C19.9882 295.216 -2.24241 271.065 15.3634 259.042C32.2654 247.486 50.4409 303.245 50.4409 303.245L58.3389 323.775ZM91.1375 454.651C94.6788 457.114 91.2045 458.073 74.9616 454.212C67.3429 452.415 51.8485 448.42 57.0877 440.538C62.1595 432.95 82.9378 448.926 82.9378 448.926L91.1375 454.651Z" fill="#D150E7"/>
<path opacity="0.3" d="M73.878 319.781C73.878 319.781 89.4507 272.622 75.5872 267.017C61.154 261.172 61.7908 292.314 62.3494 307.492C63.5223 339.925 66.5274 345.956 68.7728 338.034L73.878 319.781ZM78.5588 356.567C74.2802 363.224 73.0737 356.327 80.793 325.186C84.4125 310.541 92.277 280.917 104.342 292.034C115.926 302.685 88.3559 341.296 88.3559 341.296L78.5588 356.567ZM86.8254 383.595C82.7479 387.908 82.6698 382.463 92.3552 359.976C96.9018 349.444 106.52 328.128 114.396 338.673C121.959 348.845 96.1869 373.569 96.1869 373.569L86.8254 383.595ZM95.7624 415.735C91.6849 420.062 91.6067 414.603 101.292 392.129C105.839 381.597 115.457 360.268 123.333 370.826C130.851 381.025 105.157 405.749 105.157 405.749L95.7624 415.735ZM69.9569 350.31C76.4809 353.345 71.2975 356.647 44.051 356.554C31.2711 356.554 5.17527 355.862 10.7385 338.939C16.0672 322.683 54.8758 343.386 54.8758 343.386L69.9569 350.31ZM77.3858 371.932C84.2896 373.356 79.7541 377.83 53.0326 384.194C40.5097 387.189 14.8271 392.715 17.4524 374.874C19.9659 357.672 61.4557 368.776 61.4557 368.776L77.3858 371.932ZM85.6971 398.333C91.5732 399.345 87.8197 403.246 65.3544 409.37C54.82 412.246 33.2037 417.638 35.0805 402.421C36.8679 387.775 72.1688 396.056 72.1688 396.056L85.6971 398.333ZM92.0089 422.791C97.762 424.535 93.6845 427.943 70.7836 431.192C60.0593 432.71 38.0855 435.346 41.2917 420.448C44.3861 406.148 78.7486 418.81 78.7486 418.81L92.0089 422.791ZM58.3389 323.775C61.6903 332.722 54.7306 331.364 31.07 306.76C19.9882 295.216 -2.24241 271.065 15.3634 259.042C32.2654 247.486 50.4409 303.245 50.4409 303.245L58.3389 323.775ZM91.1375 454.651C94.6788 457.114 91.2045 458.073 74.9616 454.212C67.3429 452.415 51.8485 448.42 57.0877 440.538C62.1595 432.95 82.9378 448.926 82.9378 448.926L91.1375 454.651Z" fill="white"/>
<path d="M67.0077 341.735L69.7223 287.907L67.0077 341.735ZM75.5984 359.496L92.7573 313.203L75.5984 359.496ZM31.3158 346.036L72.4369 353.066L31.3158 346.036ZM84.4906 384.447L106.755 350.403L84.4906 384.447ZM80.5807 374.008L49.9047 375.846L80.5807 374.008ZM87.842 400.117L64.3825 402.886L87.842 400.117ZM93.5058 416.706L105.157 395.817L93.5058 416.706ZM94.8463 424.082L67.2647 424.389L94.8463 424.082ZM100.432 485.753C100.247 485.736 100.075 485.632 99.9541 485.465C99.8328 485.298 99.7717 485.081 99.784 484.861C101.538 453.466 91.3497 402.048 75.0063 359.842C64.5613 332.868 23.6189 279.852 23.1832 279.319C23.0515 279.162 22.9776 278.949 22.9776 278.727C22.9776 278.505 23.0515 278.292 23.1832 278.134C23.2476 278.057 23.3241 277.996 23.4085 277.954C23.4929 277.912 23.5833 277.891 23.6747 277.891C23.7661 277.891 23.8566 277.912 23.9409 277.954C24.0253 277.996 24.1019 278.057 24.1663 278.134C24.5796 278.667 65.6895 331.883 76.224 359.097C92.869 402.327 102.923 452.814 101.136 484.967C101.122 485.179 101.042 485.377 100.912 485.523C100.781 485.668 100.61 485.75 100.432 485.753ZM67.0189 342.561C66.8341 342.547 66.6614 342.447 66.538 342.283C66.4147 342.118 66.3506 341.902 66.3598 341.682L69.0297 287.827C69.034 287.717 69.0565 287.61 69.0961 287.511C69.1356 287.412 69.1913 287.323 69.26 287.25C69.3286 287.177 69.4088 287.121 69.4959 287.085C69.583 287.049 69.6751 287.034 69.767 287.041C69.9518 287.055 70.1245 287.155 70.2479 287.32C70.3713 287.484 70.4353 287.7 70.4261 287.92L67.7115 341.749C67.7029 341.961 67.6261 342.16 67.4972 342.307C67.3682 342.453 67.1969 342.534 67.0189 342.534V342.561ZM75.3526 360.255C75.1852 360.165 75.0541 360 74.9874 359.796C74.9206 359.592 74.9233 359.365 74.9951 359.163L92.1652 312.871C92.2393 312.669 92.3774 312.511 92.5492 312.431C92.721 312.352 92.9124 312.356 93.0813 312.445C93.2501 312.533 93.3827 312.697 93.4497 312.902C93.5168 313.107 93.5128 313.335 93.4388 313.536L76.2798 359.829C76.2259 359.978 76.1372 360.104 76.0242 360.194C75.9112 360.284 75.7788 360.333 75.643 360.335C75.5275 360.342 75.4123 360.315 75.3079 360.255H75.3526ZM72.3811 353.864L31.2823 346.861C31.183 346.859 31.0854 346.831 30.9957 346.781C30.9059 346.73 30.8262 346.657 30.7617 346.567C30.6973 346.477 30.6495 346.372 30.6215 346.259C30.5936 346.145 30.5861 346.026 30.5996 345.909C30.6131 345.791 30.6472 345.679 30.6998 345.579C30.7523 345.478 30.8221 345.392 30.9045 345.326C30.9869 345.26 31.0801 345.216 31.1779 345.196C31.2758 345.176 31.3761 345.181 31.4722 345.21L72.571 352.213C72.7547 352.228 72.9261 352.328 73.0476 352.493C73.1691 352.658 73.2308 352.873 73.2189 353.092C73.2071 353.311 73.1227 353.515 72.9845 353.66C72.8462 353.805 72.6653 353.879 72.4816 353.864H72.3811ZM84.0996 385.112C83.9537 384.976 83.8589 384.776 83.8359 384.557C83.8129 384.337 83.8635 384.116 83.9768 383.941L106.252 349.83C106.366 349.654 106.534 349.538 106.72 349.51C106.905 349.481 107.093 349.541 107.241 349.677C107.389 349.813 107.486 350.014 107.51 350.235C107.534 350.456 107.483 350.679 107.369 350.855L85.0492 385.019C84.9844 385.119 84.9014 385.199 84.8066 385.254C84.7117 385.31 84.6075 385.339 84.5018 385.339C84.3351 385.329 84.1766 385.249 84.0549 385.112H84.0996ZM49.2902 375.886C49.2842 375.665 49.3511 375.451 49.4765 375.289C49.6019 375.127 49.7758 375.031 49.9605 375.02L80.5807 373.17C80.7528 373.184 80.9145 373.273 81.0352 373.42C81.1559 373.566 81.2271 373.761 81.2354 373.966C81.2437 374.172 81.1884 374.373 81.0801 374.533C80.9717 374.693 80.8179 374.8 80.6477 374.834L49.9717 376.685C49.7869 376.692 49.6071 376.612 49.4712 376.463C49.3353 376.313 49.2543 376.106 49.2456 375.886H49.2902ZM63.7346 402.966C63.7238 402.857 63.7315 402.746 63.7572 402.64C63.783 402.534 63.8263 402.435 63.8847 402.35C63.943 402.264 64.0151 402.193 64.0967 402.141C64.1784 402.089 64.268 402.058 64.3602 402.048L87.8197 399.292C87.9107 399.281 88.0026 399.291 88.0902 399.323C88.1778 399.354 88.2592 399.406 88.3299 399.476C88.4005 399.545 88.4589 399.63 88.5017 399.727C88.5445 399.823 88.5709 399.929 88.5793 400.037C88.5949 400.256 88.5383 400.473 88.4213 400.642C88.3044 400.811 88.1366 400.919 87.9537 400.943L64.4942 403.712H64.4272C64.247 403.727 64.069 403.657 63.9313 403.518C63.7936 403.379 63.7069 403.181 63.6899 402.966H63.7346ZM93.1706 417.399C93.0155 417.277 92.9073 417.086 92.8696 416.869C92.832 416.652 92.8679 416.426 92.9696 416.24L104.565 395.351C104.671 395.171 104.832 395.047 105.013 395.005C105.194 394.962 105.382 395.005 105.537 395.124C105.692 395.247 105.8 395.437 105.838 395.654C105.876 395.871 105.84 396.097 105.738 396.283L94.1425 417.172C94.0762 417.287 93.9878 417.38 93.8847 417.445C93.7817 417.51 93.667 417.544 93.5504 417.545C93.3991 417.555 93.2495 417.503 93.126 417.399H93.1706ZM66.5609 424.389C66.5637 424.169 66.6372 423.96 66.7662 423.804C66.8952 423.648 67.0697 423.557 67.2535 423.55L94.8352 423.244C95.0188 423.244 95.195 423.331 95.3249 423.485C95.4548 423.64 95.5278 423.85 95.5278 424.069C95.5308 424.179 95.5151 424.289 95.4815 424.391C95.4479 424.494 95.3972 424.587 95.3324 424.665C95.2676 424.744 95.1901 424.806 95.1046 424.848C95.0192 424.889 94.9275 424.91 94.8352 424.908L67.2535 425.214C67.1592 425.219 67.065 425.202 66.9765 425.163C66.8879 425.124 66.8068 425.065 66.738 424.988C66.6693 424.911 66.6142 424.818 66.5761 424.715C66.538 424.612 66.5176 424.501 66.5162 424.389H66.5609ZM103.571 473.544C103.515 473.397 98.8121 457.953 84.6694 454.265C84.4872 454.217 84.3284 454.085 84.2279 453.898C84.1273 453.711 84.0933 453.484 84.1331 453.267C84.1783 453.054 84.2906 452.87 84.4467 452.753C84.6028 452.637 84.7906 452.596 84.971 452.641C99.8845 456.529 104.833 472.838 104.889 472.998C104.947 473.208 104.933 473.437 104.852 473.636C104.771 473.834 104.628 473.988 104.454 474.063H104.23C104.082 474.078 103.933 474.036 103.806 473.943C103.679 473.849 103.581 473.709 103.526 473.544H103.571ZM100.432 485.753C100.247 485.736 100.075 485.632 99.9541 485.465C99.8328 485.298 99.7717 485.081 99.784 484.861C101.538 453.466 91.3497 402.048 75.0063 359.842C64.5613 332.868 23.6189 279.852 23.1832 279.319C23.0515 279.162 22.9776 278.949 22.9776 278.727C22.9776 278.505 23.0515 278.292 23.1832 278.134C23.2476 278.057 23.3241 277.996 23.4085 277.954C23.4929 277.912 23.5833 277.891 23.6747 277.891C23.7661 277.891 23.8566 277.912 23.9409 277.954C24.0253 277.996 24.1019 278.057 24.1663 278.134C24.5796 278.667 65.6895 331.883 76.224 359.097C92.869 402.327 102.923 452.814 101.136 484.967C101.122 485.179 101.042 485.377 100.912 485.523C100.781 485.668 100.61 485.75 100.432 485.753ZM67.0189 342.561C66.8341 342.547 66.6614 342.447 66.538 342.283C66.4147 342.118 66.3506 341.902 66.3598 341.682L69.0297 287.827C69.034 287.717 69.0565 287.61 69.0961 287.511C69.1356 287.412 69.1913 287.323 69.26 287.25C69.3286 287.177 69.4088 287.121 69.4959 287.085C69.583 287.049 69.6751 287.034 69.767 287.041C69.9518 287.055 70.1245 287.155 70.2479 287.32C70.3713 287.484 70.4353 287.7 70.4261 287.92L67.7115 341.749C67.7029 341.961 67.6261 342.16 67.4972 342.307C67.3682 342.453 67.1969 342.534 67.0189 342.534V342.561ZM75.3526 360.255C75.1852 360.165 75.0541 360 74.9874 359.796C74.9206 359.592 74.9233 359.365 74.9951 359.163L92.1652 312.871C92.2393 312.669 92.3774 312.511 92.5492 312.431C92.721 312.352 92.9124 312.356 93.0813 312.445C93.2501 312.533 93.3827 312.697 93.4497 312.902C93.5168 313.107 93.5128 313.335 93.4388 313.536L76.2798 359.829C76.2259 359.978 76.1372 360.104 76.0242 360.194C75.9112 360.284 75.7788 360.333 75.643 360.335C75.5275 360.342 75.4123 360.315 75.3079 360.255H75.3526ZM72.3811 353.864L31.2823 346.861C31.183 346.859 31.0854 346.831 30.9957 346.781C30.9059 346.73 30.8262 346.657 30.7617 346.567C30.6973 346.477 30.6495 346.372 30.6215 346.259C30.5936 346.145 30.5861 346.026 30.5996 345.909C30.6131 345.791 30.6472 345.679 30.6998 345.579C30.7523 345.478 30.8221 345.392 30.9045 345.326C30.9869 345.26 31.0801 345.216 31.1779 345.196C31.2758 345.176 31.3761 345.181 31.4722 345.21L72.571 352.213C72.7547 352.228 72.9261 352.328 73.0476 352.493C73.1691 352.658 73.2308 352.873 73.2189 353.092C73.2071 353.311 73.1227 353.515 72.9845 353.66C72.8462 353.805 72.6653 353.879 72.4816 353.864H72.3811ZM84.0996 385.112C83.9537 384.976 83.8589 384.776 83.8359 384.557C83.8129 384.337 83.8635 384.116 83.9768 383.941L106.252 349.83C106.309 349.743 106.379 349.67 106.459 349.614C106.539 349.559 106.628 349.524 106.72 349.51C106.812 349.495 106.905 349.503 106.994 349.532C107.084 349.56 107.167 349.61 107.241 349.677C107.314 349.744 107.376 349.828 107.422 349.924C107.468 350.02 107.498 350.125 107.51 350.235C107.522 350.344 107.515 350.455 107.491 350.562C107.467 350.668 107.426 350.768 107.369 350.855L85.0492 385.019C84.9844 385.119 84.9014 385.199 84.8066 385.254C84.7117 385.31 84.6075 385.339 84.5018 385.339C84.3351 385.329 84.1766 385.249 84.0549 385.112H84.0996ZM49.2902 375.886C49.2842 375.665 49.3511 375.451 49.4765 375.289C49.6019 375.127 49.7758 375.031 49.9605 375.02L80.5807 373.17C80.7528 373.184 80.9145 373.273 81.0352 373.42C81.1559 373.566 81.2271 373.761 81.2354 373.966C81.2437 374.172 81.1884 374.373 81.0801 374.533C80.9717 374.693 80.8179 374.8 80.6477 374.834L49.9717 376.685C49.7869 376.692 49.6071 376.612 49.4712 376.463C49.3353 376.313 49.2543 376.106 49.2456 375.886H49.2902ZM63.7346 402.966C63.7238 402.857 63.7315 402.746 63.7572 402.64C63.783 402.534 63.8263 402.435 63.8847 402.35C63.943 402.264 64.0151 402.193 64.0967 402.141C64.1784 402.089 64.268 402.058 64.3602 402.048L87.8197 399.292C87.9107 399.281 88.0026 399.291 88.0902 399.323C88.1778 399.354 88.2592 399.406 88.3299 399.476C88.4005 399.545 88.4589 399.63 88.5017 399.727C88.5445 399.823 88.5709 399.929 88.5793 400.037C88.5949 400.256 88.5383 400.473 88.4213 400.642C88.3044 400.811 88.1366 400.919 87.9537 400.943L64.4942 403.712H64.4272C64.247 403.727 64.069 403.657 63.9313 403.518C63.7936 403.379 63.7069 403.181 63.6899 402.966H63.7346ZM93.1706 417.399C93.0155 417.277 92.9073 417.086 92.8696 416.869C92.832 416.652 92.8679 416.426 92.9696 416.24L104.565 395.351C104.671 395.171 104.832 395.047 105.013 395.005C105.194 394.962 105.382 395.005 105.537 395.124C105.692 395.247 105.8 395.437 105.838 395.654C105.876 395.871 105.84 396.097 105.738 396.283L94.1425 417.172C94.0762 417.287 93.9878 417.38 93.8847 417.445C93.7817 417.51 93.667 417.544 93.5504 417.545C93.3991 417.555 93.2495 417.503 93.126 417.399H93.1706ZM66.5609 424.389C66.5637 424.169 66.6372 423.96 66.7662 423.804C66.8952 423.648 67.0697 423.557 67.2535 423.55L94.8352 423.244C95.0188 423.244 95.195 423.331 95.3249 423.485C95.4548 423.64 95.5278 423.85 95.5278 424.069C95.5308 424.179 95.5151 424.289 95.4815 424.391C95.4479 424.494 95.3972 424.587 95.3324 424.665C95.2676 424.744 95.1901 424.806 95.1046 424.848C95.0192 424.889 94.9275 424.91 94.8352 424.908L67.2535 425.214C67.1592 425.219 67.065 425.202 66.9765 425.163C66.8879 425.124 66.8068 425.065 66.738 424.988C66.6693 424.911 66.6142 424.818 66.5761 424.715C66.538 424.612 66.5176 424.501 66.5162 424.389H66.5609ZM103.571 473.544C103.515 473.397 98.8121 457.953 84.6694 454.265C84.4872 454.217 84.3284 454.085 84.2279 453.898C84.1273 453.711 84.0933 453.484 84.1331 453.267C84.1783 453.054 84.2906 452.87 84.4467 452.753C84.6028 452.637 84.7906 452.596 84.971 452.641C99.8845 456.529 104.833 472.838 104.889 472.998C104.947 473.208 104.933 473.437 104.852 473.636C104.771 473.834 104.628 473.988 104.454 474.063H104.23C104.082 474.078 103.933 474.036 103.806 473.943C103.679 473.849 103.581 473.709 103.526 473.544H103.571Z" fill="#D150E7"/>
<path opacity="0.2" d="M67.0077 341.735L69.7223 287.907L67.0077 341.735ZM75.5984 359.496L92.7573 313.203L75.5984 359.496ZM31.3158 346.036L72.4369 353.066L31.3158 346.036ZM84.4906 384.447L106.755 350.403L84.4906 384.447ZM80.5807 374.008L49.9047 375.846L80.5807 374.008ZM87.842 400.117L64.3825 402.886L87.842 400.117ZM93.5058 416.706L105.157 395.817L93.5058 416.706ZM94.8463 424.082L67.2647 424.389L94.8463 424.082ZM100.432 485.753C100.247 485.736 100.075 485.632 99.9541 485.465C99.8328 485.298 99.7717 485.081 99.784 484.861C101.538 453.466 91.3497 402.048 75.0063 359.842C64.5613 332.868 23.6189 279.852 23.1832 279.319C23.0515 279.162 22.9776 278.949 22.9776 278.727C22.9776 278.505 23.0515 278.292 23.1832 278.134C23.2476 278.057 23.3241 277.996 23.4085 277.954C23.4929 277.912 23.5833 277.891 23.6747 277.891C23.7661 277.891 23.8566 277.912 23.9409 277.954C24.0253 277.996 24.1019 278.057 24.1663 278.134C24.5796 278.667 65.6895 331.883 76.224 359.097C92.869 402.327 102.923 452.814 101.136 484.967C101.122 485.179 101.042 485.377 100.912 485.523C100.781 485.668 100.61 485.75 100.432 485.753ZM67.0189 342.561C66.8341 342.547 66.6614 342.447 66.538 342.283C66.4147 342.118 66.3506 341.902 66.3598 341.682L69.0297 287.827C69.034 287.717 69.0565 287.61 69.0961 287.511C69.1356 287.412 69.1913 287.323 69.26 287.25C69.3286 287.177 69.4088 287.121 69.4959 287.085C69.583 287.049 69.6751 287.034 69.767 287.041C69.9518 287.055 70.1245 287.155 70.2479 287.32C70.3713 287.484 70.4353 287.7 70.4261 287.92L67.7115 341.749C67.7029 341.961 67.6261 342.16 67.4972 342.307C67.3682 342.453 67.1969 342.534 67.0189 342.534V342.561ZM75.3526 360.255C75.1852 360.165 75.0541 360 74.9874 359.796C74.9206 359.592 74.9233 359.365 74.9951 359.163L92.1652 312.871C92.2393 312.669 92.3774 312.511 92.5492 312.431C92.721 312.352 92.9124 312.356 93.0813 312.445C93.2501 312.533 93.3827 312.697 93.4497 312.902C93.5168 313.107 93.5128 313.335 93.4388 313.536L76.2798 359.829C76.2259 359.978 76.1372 360.104 76.0242 360.194C75.9112 360.284 75.7788 360.333 75.643 360.335C75.5275 360.342 75.4123 360.315 75.3079 360.255H75.3526ZM72.3811 353.864L31.2823 346.861C31.183 346.859 31.0854 346.831 30.9957 346.781C30.9059 346.73 30.8262 346.657 30.7617 346.567C30.6973 346.477 30.6495 346.372 30.6215 346.259C30.5936 346.145 30.5861 346.026 30.5996 345.909C30.6131 345.791 30.6472 345.679 30.6998 345.579C30.7523 345.478 30.8221 345.392 30.9045 345.326C30.9869 345.26 31.0801 345.216 31.1779 345.196C31.2758 345.176 31.3761 345.181 31.4722 345.21L72.571 352.213C72.7547 352.228 72.9261 352.328 73.0476 352.493C73.1691 352.658 73.2308 352.873 73.2189 353.092C73.2071 353.311 73.1227 353.515 72.9845 353.66C72.8462 353.805 72.6653 353.879 72.4816 353.864H72.3811ZM84.0996 385.112C83.9537 384.976 83.8589 384.776 83.8359 384.557C83.8129 384.337 83.8635 384.116 83.9768 383.941L106.252 349.83C106.366 349.654 106.534 349.538 106.72 349.51C106.905 349.481 107.093 349.541 107.241 349.677C107.389 349.813 107.486 350.014 107.51 350.235C107.534 350.456 107.483 350.679 107.369 350.855L85.0492 385.019C84.9844 385.119 84.9014 385.199 84.8066 385.254C84.7117 385.31 84.6075 385.339 84.5018 385.339C84.3351 385.329 84.1766 385.249 84.0549 385.112H84.0996ZM49.2902 375.886C49.2842 375.665 49.3511 375.451 49.4765 375.289C49.6019 375.127 49.7758 375.031 49.9605 375.02L80.5807 373.17C80.7528 373.184 80.9145 373.273 81.0352 373.42C81.1559 373.566 81.2271 373.761 81.2354 373.966C81.2437 374.172 81.1884 374.373 81.0801 374.533C80.9717 374.693 80.8179 374.8 80.6477 374.834L49.9717 376.685C49.7869 376.692 49.6071 376.612 49.4712 376.463C49.3353 376.313 49.2543 376.106 49.2456 375.886H49.2902ZM63.7346 402.966C63.7238 402.857 63.7315 402.746 63.7572 402.64C63.783 402.534 63.8263 402.435 63.8847 402.35C63.943 402.264 64.0151 402.193 64.0967 402.141C64.1784 402.089 64.268 402.058 64.3602 402.048L87.8197 399.292C87.9107 399.281 88.0026 399.291 88.0902 399.323C88.1778 399.354 88.2592 399.406 88.3299 399.476C88.4005 399.545 88.4589 399.63 88.5017 399.727C88.5445 399.823 88.5709 399.929 88.5793 400.037C88.5949 400.256 88.5383 400.473 88.4213 400.642C88.3044 400.811 88.1366 400.919 87.9537 400.943L64.4942 403.712H64.4272C64.247 403.727 64.069 403.657 63.9313 403.518C63.7936 403.379 63.7069 403.181 63.6899 402.966H63.7346ZM93.1706 417.399C93.0155 417.277 92.9073 417.086 92.8696 416.869C92.832 416.652 92.8679 416.426 92.9696 416.24L104.565 395.351C104.671 395.171 104.832 395.047 105.013 395.005C105.194 394.962 105.382 395.005 105.537 395.124C105.692 395.247 105.8 395.437 105.838 395.654C105.876 395.871 105.84 396.097 105.738 396.283L94.1425 417.172C94.0762 417.287 93.9878 417.38 93.8847 417.445C93.7817 417.51 93.667 417.544 93.5504 417.545C93.3991 417.555 93.2495 417.503 93.126 417.399H93.1706ZM66.5609 424.389C66.5637 424.169 66.6372 423.96 66.7662 423.804C66.8952 423.648 67.0697 423.557 67.2535 423.55L94.8352 423.244C95.0188 423.244 95.195 423.331 95.3249 423.485C95.4548 423.64 95.5278 423.85 95.5278 424.069C95.5308 424.179 95.5151 424.289 95.4815 424.391C95.4479 424.494 95.3972 424.587 95.3324 424.665C95.2676 424.744 95.1901 424.806 95.1046 424.848C95.0192 424.889 94.9275 424.91 94.8352 424.908L67.2535 425.214C67.1592 425.219 67.065 425.202 66.9765 425.163C66.8879 425.124 66.8068 425.065 66.738 424.988C66.6693 424.911 66.6142 424.818 66.5761 424.715C66.538 424.612 66.5176 424.501 66.5162 424.389H66.5609ZM103.571 473.544C103.515 473.397 98.8121 457.953 84.6694 454.265C84.4872 454.217 84.3284 454.085 84.2279 453.898C84.1273 453.711 84.0933 453.484 84.1331 453.267C84.1783 453.054 84.2906 452.87 84.4467 452.753C84.6028 452.637 84.7906 452.596 84.971 452.641C99.8845 456.529 104.833 472.838 104.889 472.998C104.947 473.208 104.933 473.437 104.852 473.636C104.771 473.834 104.628 473.988 104.454 474.063H104.23C104.082 474.078 103.933 474.036 103.806 473.943C103.679 473.849 103.581 473.709 103.526 473.544H103.571ZM100.432 485.753C100.247 485.736 100.075 485.632 99.9541 485.465C99.8328 485.298 99.7717 485.081 99.784 484.861C101.538 453.466 91.3497 402.048 75.0063 359.842C64.5613 332.868 23.6189 279.852 23.1832 279.319C23.0515 279.162 22.9776 278.949 22.9776 278.727C22.9776 278.505 23.0515 278.292 23.1832 278.134C23.2476 278.057 23.3241 277.996 23.4085 277.954C23.4929 277.912 23.5833 277.891 23.6747 277.891C23.7661 277.891 23.8566 277.912 23.9409 277.954C24.0253 277.996 24.1019 278.057 24.1663 278.134C24.5796 278.667 65.6895 331.883 76.224 359.097C92.869 402.327 102.923 452.814 101.136 484.967C101.122 485.179 101.042 485.377 100.912 485.523C100.781 485.668 100.61 485.75 100.432 485.753ZM67.0189 342.561C66.8341 342.547 66.6614 342.447 66.538 342.283C66.4147 342.118 66.3506 341.902 66.3598 341.682L69.0297 287.827C69.034 287.717 69.0565 287.61 69.0961 287.511C69.1356 287.412 69.1913 287.323 69.26 287.25C69.3286 287.177 69.4088 287.121 69.4959 287.085C69.583 287.049 69.6751 287.034 69.767 287.041C69.9518 287.055 70.1245 287.155 70.2479 287.32C70.3713 287.484 70.4353 287.7 70.4261 287.92L67.7115 341.749C67.7029 341.961 67.6261 342.16 67.4972 342.307C67.3682 342.453 67.1969 342.534 67.0189 342.534V342.561ZM75.3526 360.255C75.1852 360.165 75.0541 360 74.9874 359.796C74.9206 359.592 74.9233 359.365 74.9951 359.163L92.1652 312.871C92.2393 312.669 92.3774 312.511 92.5492 312.431C92.721 312.352 92.9124 312.356 93.0813 312.445C93.2501 312.533 93.3827 312.697 93.4497 312.902C93.5168 313.107 93.5128 313.335 93.4388 313.536L76.2798 359.829C76.2259 359.978 76.1372 360.104 76.0242 360.194C75.9112 360.284 75.7788 360.333 75.643 360.335C75.5275 360.342 75.4123 360.315 75.3079 360.255H75.3526ZM72.3811 353.864L31.2823 346.861C31.183 346.859 31.0854 346.831 30.9957 346.781C30.9059 346.73 30.8262 346.657 30.7617 346.567C30.6973 346.477 30.6495 346.372 30.6215 346.259C30.5936 346.145 30.5861 346.026 30.5996 345.909C30.6131 345.791 30.6472 345.679 30.6998 345.579C30.7523 345.478 30.8221 345.392 30.9045 345.326C30.9869 345.26 31.0801 345.216 31.1779 345.196C31.2758 345.176 31.3761 345.181 31.4722 345.21L72.571 352.213C72.7547 352.228 72.9261 352.328 73.0476 352.493C73.1691 352.658 73.2308 352.873 73.2189 353.092C73.2071 353.311 73.1227 353.515 72.9845 353.66C72.8462 353.805 72.6653 353.879 72.4816 353.864H72.3811ZM84.0996 385.112C83.9537 384.976 83.8589 384.776 83.8359 384.557C83.8129 384.337 83.8635 384.116 83.9768 383.941L106.252 349.83C106.309 349.743 106.379 349.67 106.459 349.614C106.539 349.559 106.628 349.524 106.72 349.51C106.812 349.495 106.905 349.503 106.994 349.532C107.084 349.56 107.167 349.61 107.241 349.677C107.314 349.744 107.376 349.828 107.422 349.924C107.468 350.02 107.498 350.125 107.51 350.235C107.522 350.344 107.515 350.455 107.491 350.562C107.467 350.668 107.426 350.768 107.369 350.855L85.0492 385.019C84.9844 385.119 84.9014 385.199 84.8066 385.254C84.7117 385.31 84.6075 385.339 84.5018 385.339C84.3351 385.329 84.1766 385.249 84.0549 385.112H84.0996ZM49.2902 375.886C49.2842 375.665 49.3511 375.451 49.4765 375.289C49.6019 375.127 49.7758 375.031 49.9605 375.02L80.5807 373.17C80.7528 373.184 80.9145 373.273 81.0352 373.42C81.1559 373.566 81.2271 373.761 81.2354 373.966C81.2437 374.172 81.1884 374.373 81.0801 374.533C80.9717 374.693 80.8179 374.8 80.6477 374.834L49.9717 376.685C49.7869 376.692 49.6071 376.612 49.4712 376.463C49.3353 376.313 49.2543 376.106 49.2456 375.886H49.2902ZM63.7346 402.966C63.7238 402.857 63.7315 402.746 63.7572 402.64C63.783 402.534 63.8263 402.435 63.8847 402.35C63.943 402.264 64.0151 402.193 64.0967 402.141C64.1784 402.089 64.268 402.058 64.3602 402.048L87.8197 399.292C87.9107 399.281 88.0026 399.291 88.0902 399.323C88.1778 399.354 88.2592 399.406 88.3299 399.476C88.4005 399.545 88.4589 399.63 88.5017 399.727C88.5445 399.823 88.5709 399.929 88.5793 400.037C88.5949 400.256 88.5383 400.473 88.4213 400.642C88.3044 400.811 88.1366 400.919 87.9537 400.943L64.4942 403.712H64.4272C64.247 403.727 64.069 403.657 63.9313 403.518C63.7936 403.379 63.7069 403.181 63.6899 402.966H63.7346ZM93.1706 417.399C93.0155 417.277 92.9073 417.086 92.8696 416.869C92.832 416.652 92.8679 416.426 92.9696 416.24L104.565 395.351C104.671 395.171 104.832 395.047 105.013 395.005C105.194 394.962 105.382 395.005 105.537 395.124C105.692 395.247 105.8 395.437 105.838 395.654C105.876 395.871 105.84 396.097 105.738 396.283L94.1425 417.172C94.0762 417.287 93.9878 417.38 93.8847 417.445C93.7817 417.51 93.667 417.544 93.5504 417.545C93.3991 417.555 93.2495 417.503 93.126 417.399H93.1706ZM66.5609 424.389C66.5637 424.169 66.6372 423.96 66.7662 423.804C66.8952 423.648 67.0697 423.557 67.2535 423.55L94.8352 423.244C95.0188 423.244 95.195 423.331 95.3249 423.485C95.4548 423.64 95.5278 423.85 95.5278 424.069C95.5308 424.179 95.5151 424.289 95.4815 424.391C95.4479 424.494 95.3972 424.587 95.3324 424.665C95.2676 424.744 95.1901 424.806 95.1046 424.848C95.0192 424.889 94.9275 424.91 94.8352 424.908L67.2535 425.214C67.1592 425.219 67.065 425.202 66.9765 425.163C66.8879 425.124 66.8068 425.065 66.738 424.988C66.6693 424.911 66.6142 424.818 66.5761 424.715C66.538 424.612 66.5176 424.501 66.5162 424.389H66.5609ZM103.571 473.544C103.515 473.397 98.8121 457.953 84.6694 454.265C84.4872 454.217 84.3284 454.085 84.2279 453.898C84.1273 453.711 84.0933 453.484 84.1331 453.267C84.1783 453.054 84.2906 452.87 84.4467 452.753C84.6028 452.637 84.7906 452.596 84.971 452.641C99.8845 456.529 104.833 472.838 104.889 472.998C104.947 473.208 104.933 473.437 104.852 473.636C104.771 473.834 104.628 473.988 104.454 474.063H104.23C104.082 474.078 103.933 474.036 103.806 473.943C103.679 473.849 103.581 473.709 103.526 473.544H103.571Z" fill="black"/>
<path d="M82.1888 462.28H113.814V470.082H111.055L105.347 512.647H90.6566L84.9481 470.082H82.1888V462.28Z" fill="#D150E7"/>
<path opacity="0.3" d="M82.1888 462.28H113.814V470.082H111.055L105.347 512.647H90.6566L84.9481 470.082H82.1888V462.28Z" fill="white"/>
<path d="M366.92 226.356L403.707 212.044L406.98 201.739L414.454 201.459L428.016 198.397L426.385 201.739L409.315 216.504L405.104 219.007L366.63 242.959L366.92 226.356Z" fill="white" stroke="#263238" stroke-width="1.4342" stroke-miterlimit="10"/>
<path d="M406.98 201.739L410.488 199.236L417.492 202.298L416.33 203.962L406.98 201.739Z" fill="white" stroke="#263238" stroke-width="1.4342" stroke-linejoin="round"/>
<path d="M366.92 226.356L403.707 212.044L406.98 201.739L414.454 201.459L428.016 198.397L426.385 201.739L409.315 216.504L405.104 219.007L366.63 242.959L366.92 226.356Z" fill="white"/>
<path opacity="0.5" d="M366.92 226.356L403.707 212.044L406.98 201.739L414.454 201.459L428.016 198.397L426.385 201.739L409.315 216.504L405.104 219.007L366.63 242.959L366.92 226.356Z" fill="#D150E7" stroke="#263238" stroke-width="1.4342" stroke-miterlimit="10"/>
<path d="M366.92 226.356L403.707 212.044L406.98 201.739L414.454 201.459L428.016 198.397L426.385 201.739L409.315 216.504L405.104 219.007L366.63 242.959L366.92 226.356Z" stroke="#263238" stroke-width="1.4342" stroke-miterlimit="10"/>
<path d="M406.98 201.739L410.488 199.236L417.492 202.298L416.33 203.962L406.98 201.739Z" fill="white"/>
<path opacity="0.5" d="M406.98 201.739L410.488 199.236L417.492 202.298L416.33 203.962L406.98 201.739Z" fill="#D150E7" stroke="#263238" stroke-width="1.4342" stroke-linejoin="round"/>
<path d="M406.98 201.739L410.488 199.236L417.492 202.298L416.33 203.962L406.98 201.739Z" stroke="#263238" stroke-width="1.4342" stroke-linejoin="round"/>
<path d="M359.111 133.465C359.111 133.465 359.681 139.456 358.262 143.304C356.843 147.151 348.967 160.186 348.967 160.186L363.669 174.232C363.669 174.232 369.768 159.587 370.93 157.217C372.092 154.847 373.488 144.648 369.701 137.339C365.914 130.03 360.463 128.059 359.111 133.465Z" fill="white"/>
<g style="mix-blend-mode:multiply" opacity="0.5">
<path d="M366.664 152.717L360.285 168.48L363.681 174.245L370.094 160.598L366.664 152.717Z" fill="#D150E7"/>
</g>
<path d="M359.111 133.465C359.111 133.465 359.681 139.456 358.262 143.304C356.843 147.151 348.967 160.186 348.967 160.186L363.669 174.232C363.669 174.232 369.768 159.587 370.93 157.217C372.092 154.847 373.488 144.648 369.701 137.339C365.914 130.03 360.463 128.059 359.111 133.465Z" stroke="#263238" stroke-width="1.4342" stroke-miterlimit="10"/>
<path d="M354.554 122.494C355.459 115.837 361.86 102.297 372.015 102.816C378.606 103.162 381.689 104.746 384.549 106.677C386.88 108.314 389.053 110.251 391.028 112.455C395.988 119.551 397.731 121.495 396.77 126.927C396.849 129.094 396.564 131.258 395.932 133.291C394.413 138.124 393.374 141.28 392.056 143.583C392.458 145.833 393.508 151.771 393.564 153.129C393.62 154.487 390.213 153.542 388.492 153.023C385.297 161.544 379.444 167.455 377.623 168.134C374.45 169.319 369.434 163.102 366.776 158.282C364.117 153.462 366.128 148.043 366.116 145.887C366.105 143.73 360.14 138.99 357.928 137.485C355.716 135.981 353.661 129.138 354.554 122.494Z" fill="white"/>
<g style="mix-blend-mode:multiply" opacity="0.5">
<path d="M396.726 126.927C396.804 129.094 396.52 131.258 395.888 133.292C394.369 138.124 393.33 141.28 392.011 143.583C392.414 145.833 393.464 151.771 393.52 153.129C393.575 154.487 390.168 153.542 388.448 153.023C385.253 161.544 379.399 167.455 377.578 168.134C374.406 169.319 369.39 163.102 366.731 158.282C366.067 157.079 365.636 155.714 365.469 154.288C365.614 153.662 365.714 153.276 365.714 153.276C365.714 153.276 367.211 160.133 370.183 159.24C373.154 158.348 377.701 151.252 380.237 148.802C382.773 146.353 381.734 143.131 382.237 139.483C382.739 135.834 390.246 132.626 390.749 130.536C391.252 128.445 389.498 119.791 389.498 119.791C389.498 119.791 386.649 115.264 387.264 117.128C387.698 118.745 387.855 120.448 387.727 122.138C387.598 123.828 387.186 125.471 386.515 126.967C386.044 128.148 385.297 129.142 384.364 129.83C383.431 130.517 382.35 130.868 381.254 130.842L378.528 114.745L384.281 109.073L390.984 112.402C395.988 119.551 397.698 121.495 396.726 126.927Z" fill="#D150E7"/>
</g>
<path d="M354.554 122.494C355.459 115.837 361.86 102.297 372.015 102.816C378.606 103.162 381.689 104.746 384.549 106.677C386.88 108.314 389.053 110.251 391.028 112.455C395.988 119.551 397.731 121.495 396.77 126.927C396.849 129.094 396.564 131.258 395.932 133.291C394.413 138.124 393.374 141.28 392.056 143.583C392.458 145.833 393.508 151.771 393.564 153.129C393.62 154.487 390.213 153.542 388.492 153.023C385.297 161.544 379.444 167.455 377.623 168.134C374.45 169.319 369.434 163.102 366.776 158.282C364.117 153.462 366.128 148.043 366.116 145.887C366.105 143.73 360.14 138.99 357.928 137.485C355.716 135.981 353.661 129.138 354.554 122.494Z" stroke="#263238" stroke-width="1.42854" stroke-miterlimit="10"/>
<path d="M390.67 139.562L389.553 143.37C389.553 143.37 387.151 144.316 384.224 140.508" stroke="#263238" stroke-width="1.42854" stroke-miterlimit="10" stroke-linecap="round"/>
<path d="M382.416 157.35C382.416 157.35 379.757 157.03 378.685 152.583" stroke="#263238" stroke-width="1.42854" stroke-miterlimit="10" stroke-linecap="round"/>
<path d="M392.535 136.38C392.535 136.38 391.742 133.518 386.95 133.518" stroke="#263238" stroke-width="1.42854" stroke-miterlimit="10" stroke-linecap="round"/>
<path d="M367.97 97.5168C371.453 96.92 374.965 96.5998 378.483 96.5582C378.483 96.5582 389.006 89.3287 399.116 97.0375C409.226 104.746 404.366 118.247 404.366 121.615C404.366 124.984 407.606 124.997 405.584 129.337C403.562 133.678 396.725 131.281 396.725 131.281C396.653 129.644 396.29 128.044 395.66 126.587C395.03 125.129 394.148 123.848 393.072 122.827C389.43 119.458 386.526 118.726 385.319 119.698C385.319 119.698 386.124 126.927 384.917 129.817C384.917 129.817 380.873 132.226 379.656 132.226C378.438 132.226 380.449 134.263 376.416 136.074C375.681 136.389 374.895 136.496 374.12 136.387C373.345 136.279 372.601 135.957 371.947 135.448C371.355 132.519 370.06 128.112 367.647 129.138C364.105 130.642 360.877 141.027 365.669 144.568C359.905 145.82 352.923 133.664 352.51 122.587C352.096 111.51 361.983 98.7683 367.97 97.5168Z" fill="#263238"/>
<path d="M385.141 114.945C385.141 114.945 382.169 113.041 378.527 117.115C374.885 121.189 367.803 126.634 358.419 123.639" stroke="white" stroke-width="0.71427" stroke-linecap="round" stroke-linejoin="round"/>
<path d="M385.555 111.683C385.555 111.683 383.51 107.875 380.092 107.875C376.674 107.875 368.686 113.587 362.307 113.587" stroke="white" stroke-width="0.71427" stroke-linecap="round" stroke-linejoin="round"/>
<path d="M387.878 119.019C387.878 119.019 391.754 113.32 395.396 117.94C399.038 122.56 396.725 126.927 396.725 126.927" stroke="white" stroke-width="0.71427" stroke-linecap="round" stroke-linejoin="round"/>
<path d="M403.371 122.827C401.15 120.439 399.769 117.138 399.506 113.587C399.048 107.609 392.2 102.443 387.877 107.342" stroke="white" stroke-width="0.71427" stroke-linecap="round" stroke-linejoin="round"/>
<path d="M396.312 101.085C396.312 101.085 389.465 93.2031 383.767 103.255" stroke="white" stroke-width="0.71427" stroke-linecap="round" stroke-linejoin="round"/>
<path d="M340.579 488.615C340.579 488.615 336.367 496.417 336.837 501.437L337.295 506.456C337.295 506.456 352.744 511.502 356.018 511.502C359.291 511.502 376.617 509.545 376.617 509.545L377.366 506.003C377.418 505.742 377.393 505.467 377.296 505.224C377.198 504.982 377.033 504.787 376.829 504.672L361.38 496.084L356.509 489.734L340.579 488.615Z" fill="white" stroke="#263238" stroke-width="1.4342" stroke-miterlimit="10"/>
<path d="M353.671 507.574C349.481 507.96 341.527 504.912 336.914 502.968L337.238 506.456C337.238 506.456 352.743 511.502 356.016 511.502C359.29 511.502 376.616 509.545 376.616 509.545L377.152 507.015C374.382 507.028 359.211 507.068 353.671 507.574Z" fill="#D150E7" stroke="#263238" stroke-width="1.4342" stroke-miterlimit="10"/>
<path d="M361.358 496.084L383.845 507.747C383.845 507.747 385.767 513.486 383.845 514.631C381.924 515.776 340.032 514.631 340.032 514.631C340.032 514.631 337.139 505.564 341.708 499.479C346.277 493.395 361.358 496.084 361.358 496.084Z" fill="white" stroke="#263238" stroke-width="1.4342" stroke-miterlimit="10"/>
<path d="M340.032 514.631C340.032 514.631 381.924 515.776 383.845 514.631C384.773 514.072 384.806 512.461 384.594 510.93H339.295C339.443 512.188 339.69 513.427 340.032 514.631Z" fill="#D150E7" stroke="#263238" stroke-width="1.4342" stroke-miterlimit="10"/>
<path d="M371.993 293.432C371.993 293.432 377.869 324.467 380.092 343.879C382.315 363.291 383.622 402.181 383.153 406.641C382.684 411.101 359.291 485.833 359.291 485.833L356.957 492.49L340.58 488.589C340.58 488.589 348.064 460.15 350.868 444.533C353.672 428.915 359.805 403.259 359.805 398.799C359.805 394.339 345.283 309.156 344.244 303.564C343.205 297.972 338.491 289.385 338.491 289.385L369.848 288.626L371.993 293.432Z" fill="#D150E7" stroke="#263238" stroke-width="1.4342" stroke-miterlimit="10"/>
<path d="M371.992 293.432C371.992 293.432 375.433 321.778 374.014 341.482C372.596 361.187 369.546 403.139 369.546 409.384C369.546 415.628 361.089 452.92 360.609 464.637C359.861 481.559 360.911 489.933 360.911 489.933L361.413 496.071C361.413 496.071 351.549 497.749 349.393 498.481C346.903 499.246 344.333 499.577 341.763 499.466C341.763 499.466 338.177 480.654 338.177 464.623C338.177 448.593 341.16 415.601 342.646 402.234C344.131 388.867 339.451 337.302 336.792 327.676C334.133 318.05 328.324 297.666 332.234 287.255C336.144 276.843 371.992 293.432 371.992 293.432Z" fill="#D150E7" stroke="#263238" stroke-width="1.4342" stroke-miterlimit="10"/>
<path d="M327.888 282.035L328.245 294.71C328.245 294.71 334.613 296.215 343.192 297.986C350.275 299.45 368.059 297.599 374.047 296.907C374.593 296.85 375.097 296.537 375.451 296.039C375.804 295.54 375.978 294.895 375.935 294.244L375.354 282.794L327.888 282.035Z" fill="#263238"/>
<path d="M352.778 155.686C352.778 155.686 362.832 168.64 366.619 176.695C370.406 184.75 371.903 197.092 373.322 206.811C374.74 216.531 370.897 239.351 371.981 249.829L375.411 282.834C375.411 282.834 376.148 285.071 373.679 287.521C371.21 289.971 359.157 290.863 348.265 291.515C344.288 291.755 332.413 288.706 330.469 288.559C328.123 288.386 328.045 284.831 327.944 282.035C327.475 268.895 325.487 233.865 324.18 218.608C321.487 187.493 336.222 157.456 352.778 155.686Z" fill="white" stroke="#263238" stroke-width="1.4342" stroke-miterlimit="10"/>
<g style="mix-blend-mode:multiply">
<path d="M325.408 236.302C324.961 229.392 324.515 223.121 324.124 218.608C324.012 217.276 323.945 215.945 323.889 214.613L350.599 219.939L373.545 210.619C373.542 216.278 373.274 221.932 372.741 227.555L350.231 235.064L325.408 236.302Z" fill="#D150E7"/>
</g>
<g style="mix-blend-mode:multiply">
<path d="M353.771 156.99C355.291 159.001 358.307 163.088 361.178 167.429L344.22 187.972L338.634 185.309L353.771 156.99Z" fill="#D150E7"/>
</g>
<path d="M352.778 155.686C352.778 155.686 362.832 168.64 366.619 176.695C367.742 179.143 368.652 181.722 369.334 184.391L349.114 156.551C350.309 156.12 351.536 155.83 352.778 155.686Z" fill="#263238"/>
<g style="mix-blend-mode:multiply">
<path d="M372.539 201.566L350.599 210.166L323.956 206.518C324.373 198.608 325.848 190.828 328.324 183.472L349.806 193.737L369.009 183.365C370.579 189.314 371.759 195.399 372.539 201.566Z" fill="#D150E7"/>
</g>
<g style="mix-blend-mode:multiply">
<path d="M334.769 268.894C345.897 271.121 357.315 270.009 367.992 265.659L373.343 263.476L375.008 279.452L368.908 281.49C357.313 285.353 345.194 286.466 333.239 284.765L328.312 284.059C328.056 283.412 327.912 282.71 327.888 281.995C327.754 278.441 327.519 273.275 327.217 267.35L334.769 268.894Z" fill="#D150E7"/>
</g>
<g style="mix-blend-mode:multiply">
<path d="M331.788 247.139C342.916 249.375 354.337 248.258 365.011 243.891L371.825 241.108C371.656 244.009 371.69 246.921 371.926 249.816L372.719 257.498L365.927 259.761C354.336 263.629 342.22 264.746 330.268 263.05L326.917 262.57C326.638 257.245 326.314 251.573 325.967 245.968L331.788 247.139Z" fill="#D150E7"/>
</g>
<path d="M436.594 190.837L414.994 211.535L414.063 210.155L435.663 189.457L436.594 190.837Z" fill="#263238"/>
<path d="M342.377 170.051C342.377 170.051 334.457 176.482 334.278 191.673C334.2 198.33 334.78 204.548 336.065 215.452C337.35 226.356 345.326 261.865 351.537 266.178C357.748 270.492 367.389 262.344 367.389 262.344L414.018 225.451L425.289 214.6L430.875 202.032L429.121 198.037L415.369 210.606L422.776 202.444L421.324 200.248L418.643 202.471L410.823 205.959L409.114 219.273L406.701 221.244L362.094 240.669C362.094 240.669 362.653 212.057 362.239 206.585C361.826 201.113 361.256 187.36 356.341 177.387" fill="white"/>
<g style="mix-blend-mode:multiply" opacity="0.5">
<path d="M362.406 219.047C362.406 228.926 362.127 240.669 362.127 240.669L406.689 221.324L409.102 219.353L410.811 206.039L418.631 202.551L421.301 200.288L422.753 202.484L415.369 210.606L429.121 198.037L430.785 201.965L425.2 214.534L413.928 225.451L411.09 227.701L349.481 251.36L362.406 219.047Z" fill="#D150E7"/>
</g>
<path d="M342.377 170.051C342.377 170.051 334.457 176.482 334.278 191.673C334.2 198.33 334.78 204.548 336.065 215.452C337.35 226.356 345.326 261.865 351.537 266.178C357.748 270.492 367.389 262.344 367.389 262.344L414.018 225.451L425.289 214.6L430.875 202.032L429.121 198.037L415.369 210.606L422.776 202.444L421.324 200.248L418.643 202.471L410.823 205.959L409.114 219.273L406.701 221.244L362.094 240.669C362.094 240.669 362.653 212.057 362.239 206.585C361.826 201.113 361.256 187.36 356.341 177.387" stroke="#263238" stroke-width="1.4342" stroke-miterlimit="10"/>
<path d="M362.095 240.669L345.07 255.314L340.657 245.994C340.657 245.994 337.608 243.132 337.161 240.975C336.714 238.818 337.284 235.317 336.826 233.16C336.368 231.003 334.089 228.979 333.877 223.76C333.664 218.541 333.877 214.187 333.877 214.187C333.877 214.187 330.19 196.12 330.592 188.265C330.994 180.41 337.351 166.523 342.445 166.217C347.539 165.911 354.163 166.829 359.302 176.096C364.441 185.362 363.391 212.417 364.195 214.107C364.999 215.798 363.882 224.146 363.882 224.146C364.329 224.543 364.699 225.049 364.969 225.63C365.239 226.21 365.401 226.853 365.446 227.515C365.536 229.685 363.57 235.024 363.57 235.024L362.095 240.669Z" fill="white" stroke="#263238" stroke-width="1.4342" stroke-miterlimit="10"/>
<g style="mix-blend-mode:multiply">
<path d="M363.748 207.158C363.713 209.481 363.859 211.803 364.184 214.094C364.899 215.612 364.083 222.469 363.905 223.867C354.329 227.411 344.203 228.322 334.29 226.529C334.077 225.603 333.949 224.653 333.91 223.694C333.687 218.488 333.91 214.121 333.91 214.121C333.91 214.121 333.586 212.51 333.139 210.06C343.406 210.838 353.714 209.86 363.748 207.158Z" fill="#D150E7"/>
</g>
<g style="mix-blend-mode:multiply">
<path d="M359.995 177.574C361.592 181.395 362.486 187.133 363 192.952C352.859 197.564 341.925 199.15 331.151 197.571C330.721 194.492 330.53 191.373 330.581 188.252C330.775 185.785 331.264 183.364 332.033 181.062C341.441 181.324 350.837 180.152 359.995 177.574Z" fill="#D150E7"/>
</g>
<path d="M363.568 235.17L362.127 240.669L345.102 255.314L340.69 245.994C340.69 245.994 337.64 243.132 337.193 240.975C337.113 240.6 337.065 240.216 337.048 239.83C346.02 239.645 354.934 238.079 363.568 235.17Z" fill="#263238"/>
<path d="M351.248 498.308C351.248 498.308 350.868 486.778 349.014 469.922C347.159 453.067 351.616 429.128 352.365 425.134C353.113 421.14 351.985 412.273 352.734 409.157C353.482 406.042 357.101 392.755 354.968 377.337C352.834 361.919 351.103 321.165 351.103 321.165C351.103 321.165 356.476 315.959 358.051 309.183C359.626 302.406 358.42 300.276 358.42 300.276" stroke="#263238" stroke-width="1.4342" stroke-miterlimit="10"/>
<path d="M348.756 300.901L350.822 314.535" stroke="#263238" stroke-width="1.4342" stroke-miterlimit="10"/>
</svg>
