<svg width="514" height="30" viewBox="0 0 514 30" fill="none" xmlns="http://www.w3.org/2000/svg">
<path d="M0 15C167.089 15 216.287 15 220 15" stroke="#B0A5A5"/>
<path d="M294 15C461.089 15 510.287 15 514 15" stroke="#B0A5A5"/>
<path d="M252.5 24.15C251.183 24.15 249.958 23.9333 248.825 23.5C247.708 23.05 246.733 22.425 245.9 21.625C245.083 20.8083 244.442 19.8667 243.975 18.8C243.525 17.7167 243.3 16.5333 243.3 15.25C243.3 13.9667 243.525 12.7917 243.975 11.725C244.442 10.6417 245.083 9.7 245.9 8.9C246.733 8.08333 247.708 7.45833 248.825 7.025C249.942 6.575 251.167 6.35 252.5 6.35C253.817 6.35 255.033 6.575 256.15 7.025C257.267 7.45833 258.233 8.075 259.05 8.875C259.883 9.675 260.525 10.6167 260.975 11.7C261.442 12.7833 261.675 13.9667 261.675 15.25C261.675 16.5333 261.442 17.7167 260.975 18.8C260.525 19.8833 259.883 20.825 259.05 21.625C258.233 22.425 257.267 23.05 256.15 23.5C255.033 23.9333 253.817 24.15 252.5 24.15ZM252.5 22.5C253.55 22.5 254.517 22.325 255.4 21.975C256.3 21.6083 257.075 21.1 257.725 20.45C258.392 19.7833 258.908 19.0167 259.275 18.15C259.642 17.2667 259.825 16.3 259.825 15.25C259.825 14.2 259.642 13.2417 259.275 12.375C258.908 11.4917 258.392 10.725 257.725 10.075C257.075 9.40833 256.3 8.9 255.4 8.55C254.517 8.18333 253.55 8 252.5 8C251.45 8 250.475 8.18333 249.575 8.55C248.675 8.9 247.892 9.40833 247.225 10.075C246.575 10.725 246.058 11.4917 245.675 12.375C245.308 13.2417 245.125 14.2 245.125 15.25C245.125 16.2833 245.308 17.2417 245.675 18.125C246.058 19.0083 246.575 19.7833 247.225 20.45C247.892 21.1 248.675 21.6083 249.575 21.975C250.475 22.325 251.45 22.5 252.5 22.5ZM265.447 24V10.875H267.147V14.45L266.972 13.825C267.338 12.825 267.955 12.0667 268.822 11.55C269.688 11.0167 270.763 10.75 272.047 10.75V12.475C271.98 12.475 271.913 12.475 271.847 12.475C271.78 12.4583 271.713 12.45 271.647 12.45C270.263 12.45 269.18 12.875 268.397 13.725C267.613 14.5583 267.222 15.75 267.222 17.3V24H265.447Z" fill="#665D5D"/>
</svg>
