<svg width="26" height="25" viewBox="0 0 26 25" fill="none" xmlns="http://www.w3.org/2000/svg">
<path d="M19.5902 7.08571H7.37652V4.89261C7.37652 3.20563 9.31156 1.77143 11.8511 1.77143H13.4234C15.2373 1.77143 16.8096 2.53061 17.5352 3.62731C17.7769 4.04898 18.5025 4.21788 19.1074 4.04898C19.7119 3.88037 19.9541 3.37425 19.7119 2.95228C18.6235 1.18086 16.205 0 13.4234 0H11.8511C8.10211 0 4.95804 2.10894 4.95804 4.80816V7.08571C2.17676 7.42323 0 9.19465 0 11.2191V20.5824C0 22.9444 2.66062 24.8 6.04642 24.8H19.4698C22.856 24.8 25.5162 22.9441 25.5162 20.5824V11.303C25.6373 8.9413 22.8556 7.08542 19.5904 7.08542L19.5902 7.08571ZM23.2182 20.6664C23.2182 22.1003 21.6459 23.197 19.5902 23.197H6.04663C3.99094 23.197 2.41869 22.1003 2.41869 20.6664V11.3032C2.41869 9.86924 3.99094 8.77255 6.04663 8.77255H19.47C21.5257 8.77255 23.0979 9.86924 23.0979 11.3032V20.6664H23.2182ZM14.6322 14.593C14.6322 14.9305 14.3905 15.2677 14.0277 15.5208V17.4608C14.0277 17.9669 13.5438 18.3044 12.8182 18.3044C12.0926 18.3044 11.6088 17.9669 11.6088 17.4608V15.5208C11.246 15.2677 11.0042 14.9302 11.0042 14.593C11.0042 13.9182 11.8509 13.3276 12.8182 13.3276C13.7855 13.3276 14.6322 13.9182 14.6322 14.593Z" fill="#665D5D"/>
</svg>
