<svg width="26" height="25" viewBox="0 0 26 25" fill="none" xmlns="http://www.w3.org/2000/svg">
<path d="M7.44746 12.6489H17.9469C22.0978 12.6489 25.5165 15.338 25.5165 18.7244V24.8H0V18.7244C0 15.3381 3.41853 12.6489 7.44746 12.6489ZM17.9469 13.9437H7.44746C4.27321 13.9437 1.58731 16.1348 1.58731 18.7243V23.505H23.9297V18.7243C23.9297 16.1348 21.2438 13.9437 17.9474 13.9437H17.9469Z" fill="#665D5D"/>
<path d="M12.6974 0C16.9705 0 20.3892 2.7888 20.3892 6.1752C20.3892 9.66115 16.9706 12.45 12.6974 12.45C8.54645 12.45 5.12781 9.66124 5.12781 6.1752C5.12781 2.78889 8.54634 0 12.6974 0ZM12.6974 1.29483C9.40102 1.29483 6.71512 3.48595 6.71512 6.17511C6.71512 8.96392 9.40102 11.155 12.6974 11.155C16.1159 11.155 18.8018 8.96392 18.8018 6.17511C18.8018 3.48595 16.1159 1.29483 12.6974 1.29483Z" fill="#665D5D"/>
</svg>
